<?xml version="1.0" standalone="no"?>
<!DOCTYPE svg PUBLIC "-//W3C//DTD SVG 20010904//EN"
 "http://www.w3.org/TR/2001/REC-SVG-20010904/DTD/svg10.dtd">
<svg version="1.0" xmlns="http://www.w3.org/2000/svg"
 width="1128.000000pt" height="1128.000000pt" viewBox="0 0 1128.000000 1128.000000"
 preserveAspectRatio="xMidYMid meet">
<metadata>
Created by potrace 1.11, written by Peter Selinger 2001-2013
</metadata>
<g transform="translate(0.000000,1128.000000) scale(0.100000,-0.100000)"
fill="#000000" stroke="none">
<path d="M4887 11242 l-48 -3 2 -38 c2 -20 -1 -42 -5 -49 -4 -7 -2 -12 4 -12
7 0 8 -6 2 -17 -5 -10 -6 -27 -2 -38 4 -11 4 -30 -1 -42 -5 -15 -5 -23 2 -23
6 0 6 -6 0 -18 -5 -10 -6 -24 -1 -31 4 -8 5 -25 1 -40 -7 -28 -6 -90 3 -98 2
-3 1 -16 -4 -29 -6 -16 -6 -24 1 -24 6 0 6 -6 0 -18 -6 -10 -6 -24 -1 -32 5
-8 6 -18 4 -22 -8 -12 -9 -106 -2 -114 4 -3 3 -18 -1 -32 -5 -15 -5 -36 -1
-47 4 -11 4 -27 -1 -36 -4 -8 -4 -21 1 -28 4 -8 5 -25 1 -40 -4 -14 -4 -46 -1
-71 3 -25 2 -57 -2 -72 -3 -16 -3 -28 2 -28 5 0 5 -12 1 -27 -7 -30 -6 -91 3
-100 2 -3 1 -16 -4 -29 -6 -16 -6 -24 1 -24 6 0 6 -6 0 -18 -5 -10 -6 -24 -1
-31 4 -8 5 -25 1 -40 -7 -28 -6 -90 3 -98 2 -3 1 -16 -4 -29 -6 -16 -6 -24 1
-24 6 0 6 -6 0 -18 -6 -10 -6 -24 -1 -32 5 -8 6 -18 4 -22 -8 -12 -9 -106 -2
-114 4 -3 3 -18 -1 -32 -5 -15 -5 -36 -1 -47 4 -11 4 -27 -1 -36 -4 -8 -4 -21
1 -28 4 -8 5 -25 1 -40 -4 -14 -4 -46 -1 -71 3 -25 2 -57 -2 -72 -3 -16 -3
-28 2 -28 5 0 5 -12 1 -27 -7 -30 -6 -91 3 -100 2 -3 1 -16 -4 -29 -6 -16 -6
-24 1 -24 6 0 6 -6 0 -18 -5 -10 -6 -24 -1 -31 4 -8 5 -25 1 -40 -7 -28 -6
-90 3 -98 2 -3 1 -16 -4 -29 -6 -16 -6 -24 1 -24 6 0 6 -6 0 -18 -6 -10 -6
-24 -1 -32 5 -8 6 -18 4 -22 -8 -12 -9 -106 -2 -114 4 -3 3 -18 -1 -32 -5 -15
-5 -36 -1 -47 4 -11 4 -27 -1 -36 -4 -8 -4 -21 1 -28 4 -8 5 -25 1 -40 -4 -14
-4 -46 -1 -71 3 -25 2 -57 -2 -72 -3 -16 -3 -28 2 -28 5 0 5 -12 1 -27 -7 -30
-6 -91 3 -100 2 -3 1 -16 -4 -29 -6 -16 -6 -24 1 -24 6 0 7 -5 3 -12 -4 -7 -7
-29 -5 -50 l2 -39 -71 2 c-39 1 -73 -1 -76 -4 -3 -3 -17 -2 -30 3 -13 5 -26 6
-29 0 -3 -5 -18 -5 -33 -1 -15 5 -36 5 -47 1 -11 -4 -30 -4 -42 1 -12 5 -24 5
-27 0 -3 -4 -27 -5 -53 -1 -27 3 -60 3 -73 0 -14 -4 -37 -3 -52 1 -17 5 -28 4
-28 -2 0 -6 -8 -5 -20 1 -11 6 -20 7 -20 2 0 -5 -21 -6 -48 -2 -26 3 -59 3
-72 0 -14 -4 -37 -3 -52 1 -17 5 -28 4 -28 -2 0 -6 -8 -5 -20 1 -11 6 -20 7
-20 2 0 -5 -21 -6 -48 -2 -26 3 -59 3 -72 0 -14 -4 -37 -3 -52 1 -17 5 -28 4
-28 -2 0 -6 -8 -5 -20 1 -11 6 -20 7 -20 2 0 -5 -21 -6 -48 -2 -26 3 -59 3
-72 0 -14 -4 -37 -3 -52 1 -17 5 -28 4 -28 -2 0 -6 -8 -5 -20 1 -11 6 -20 7
-20 2 0 -5 -21 -6 -48 -2 -26 3 -59 3 -72 0 -14 -4 -37 -3 -52 1 -17 5 -28 4
-28 -2 0 -6 -8 -5 -20 1 -11 6 -20 7 -20 3 0 -4 -36 -6 -80 -3 -45 3 -89 2
-98 -1 -9 -4 -27 -3 -39 2 -12 5 -25 4 -28 -1 -3 -5 -18 -5 -33 -1 -15 5 -36
5 -47 1 -11 -4 -24 -5 -28 -3 -12 7 -147 6 -154 0 -3 -3 -16 -2 -29 3 -13 5
-26 6 -29 0 -3 -5 -18 -5 -33 -1 -15 5 -36 5 -47 1 -11 -4 -24 -5 -28 -3 -12
7 -147 6 -154 0 -3 -3 -16 -2 -29 3 -13 5 -26 6 -29 0 -3 -5 -18 -5 -33 -1
-15 5 -36 5 -47 1 -11 -4 -24 -5 -28 -3 -12 7 -147 6 -154 0 -3 -3 -16 -2 -29
3 -13 5 -26 6 -29 0 -3 -5 -18 -5 -33 -1 -15 5 -36 5 -47 1 -11 -4 -30 -4 -42
1 -12 5 -24 5 -27 0 -3 -4 -27 -5 -53 -1 -27 3 -60 3 -73 0 -14 -3 -42 -3 -62
1 -21 3 -38 3 -38 -1 0 -3 -14 -5 -30 -2 l-30 4 0 -68 c-1 -55 0 -229 1 -484
1 -113 1 -1011 0 -1027 0 -13 5 -23 12 -24 42 -4 55 -3 80 3 15 4 27 3 27 -2
0 -4 16 -4 34 0 19 4 37 6 39 4 7 -7 163 -7 175 0 6 3 14 2 17 -4 5 -7 11 -8
19 -1 6 5 18 6 25 2 7 -5 27 -6 45 -2 17 4 49 4 71 1 22 -3 49 -3 61 1 11 4
27 4 34 -1 7 -4 24 -4 39 0 14 4 35 5 46 3 41 -8 95 -8 95 0 0 5 4 6 9 2 14
-8 166 -9 179 -1 6 3 14 2 17 -4 5 -7 11 -8 19 -1 6 5 18 6 25 2 7 -5 27 -6
45 -2 17 4 49 4 71 1 22 -3 49 -3 61 1 11 4 27 4 34 -1 7 -4 24 -4 39 0 14 4
35 5 46 3 41 -8 95 -8 95 0 0 5 4 6 9 2 14 -8 166 -9 179 -1 6 3 14 2 17 -4 5
-7 11 -8 19 -1 6 5 18 6 25 2 7 -5 27 -6 45 -2 17 4 49 4 71 1 22 -3 49 -3 61
1 11 4 27 4 34 -1 7 -4 24 -4 39 0 14 4 35 5 46 3 41 -8 95 -8 95 0 0 5 4 6 9
2 14 -8 166 -9 179 -1 6 3 14 2 17 -4 5 -7 11 -8 19 -1 6 5 18 6 25 2 7 -5 27
-6 45 -2 17 4 49 4 71 1 22 -3 49 -3 61 1 11 4 27 4 34 -1 7 -4 24 -4 39 0 14
4 35 5 46 3 41 -8 95 -8 95 0 0 5 4 6 9 2 14 -8 166 -9 179 -1 6 3 14 2 17 -4
5 -7 11 -8 19 -1 6 5 18 6 25 2 7 -5 27 -6 45 -2 17 4 49 4 71 1 22 -3 50 -2
62 2 12 4 24 4 27 0 5 -8 9 -82 6 -94 -6 -20 -6 -34 0 -47 4 -7 4 -29 0 -47
-5 -20 -4 -34 1 -34 6 0 6 -7 0 -18 -5 -10 -6 -24 -1 -31 4 -8 5 -25 1 -40 -7
-28 -6 -90 3 -98 2 -3 1 -16 -4 -29 -6 -16 -6 -24 1 -24 6 0 6 -6 0 -18 -6
-10 -6 -24 -1 -32 5 -8 6 -18 4 -22 -8 -12 -9 -106 -2 -114 4 -3 3 -18 -1 -32
-5 -15 -5 -36 -1 -47 4 -11 4 -27 -1 -36 -4 -8 -4 -21 1 -28 4 -8 5 -25 1 -40
-4 -14 -4 -46 -1 -71 3 -25 2 -57 -2 -72 -3 -16 -3 -28 2 -28 5 0 5 -12 1 -27
-7 -30 -6 -91 3 -100 2 -3 1 -16 -4 -29 -6 -16 -6 -24 1 -24 6 0 6 -6 0 -18
-5 -10 -6 -24 -1 -31 4 -8 5 -25 1 -40 -7 -28 -6 -90 3 -98 2 -3 1 -16 -4 -29
-6 -16 -6 -24 1 -24 6 0 6 -6 0 -18 -6 -10 -6 -24 -1 -32 5 -8 6 -18 4 -22 -8
-12 -9 -106 -2 -114 4 -3 3 -18 -1 -32 -5 -15 -5 -36 -1 -47 4 -11 4 -27 -1
-36 -4 -8 -4 -21 1 -28 4 -8 5 -25 1 -40 -4 -14 -4 -46 -1 -71 3 -25 2 -57 -2
-72 -3 -16 -3 -28 2 -28 5 0 5 -12 1 -27 -7 -30 -6 -91 3 -100 2 -3 1 -16 -4
-29 -6 -16 -6 -24 1 -24 6 0 6 -6 0 -18 -5 -10 -6 -24 -1 -31 4 -8 5 -25 1
-40 -7 -28 -6 -90 3 -98 2 -3 1 -16 -4 -29 -6 -16 -6 -24 1 -24 6 0 6 -6 0
-18 -6 -10 -6 -24 -1 -32 5 -8 6 -18 4 -22 -8 -12 -9 -106 -2 -114 4 -3 3 -18
-1 -32 -5 -15 -5 -36 -1 -47 4 -11 4 -27 -1 -36 -4 -8 -4 -21 1 -28 4 -8 5
-25 1 -40 -4 -14 -4 -46 -1 -71 3 -25 2 -57 -2 -72 -3 -16 -3 -28 2 -28 5 0 5
-12 1 -27 -7 -30 -6 -91 3 -100 2 -3 1 -16 -4 -29 -6 -16 -6 -24 1 -24 6 0 6
-6 0 -18 -5 -10 -6 -24 -1 -31 4 -8 5 -25 1 -40 -7 -28 -6 -90 3 -98 2 -3 1
-16 -4 -29 -6 -16 -6 -24 1 -24 6 0 6 -6 0 -18 -6 -10 -6 -24 -1 -32 5 -8 6
-18 4 -22 -8 -12 -9 -106 -2 -114 4 -3 3 -18 -1 -32 -5 -15 -5 -36 -1 -47 4
-11 4 -27 -1 -36 -4 -8 -4 -21 1 -28 4 -8 5 -25 1 -40 -4 -14 -4 -46 -1 -71 3
-25 2 -57 -2 -72 -3 -16 -3 -28 2 -28 5 0 5 -12 1 -27 -7 -30 -6 -91 3 -100 2
-3 1 -16 -4 -29 -6 -16 -6 -24 1 -24 6 0 6 -6 0 -18 -5 -10 -6 -24 -1 -31 4
-8 5 -25 1 -40 -7 -28 -6 -90 3 -98 2 -3 1 -16 -4 -29 -6 -16 -6 -24 1 -24 6
0 6 -6 0 -18 -6 -10 -6 -24 -1 -32 5 -8 6 -18 4 -22 -8 -12 -9 -106 -2 -114 4
-3 3 -18 -1 -32 -5 -15 -5 -36 -1 -47 4 -11 4 -27 -1 -36 -4 -8 -4 -21 1 -28
4 -8 5 -25 1 -40 -4 -14 -4 -46 -1 -71 3 -25 2 -57 -2 -72 -3 -16 -3 -28 2
-28 5 0 5 -12 1 -27 -7 -30 -6 -91 3 -100 2 -3 1 -16 -4 -29 -6 -16 -6 -24 1
-24 6 0 6 -6 0 -18 -5 -10 -6 -24 -1 -31 4 -8 5 -25 1 -40 -7 -28 -6 -90 3
-98 2 -3 1 -16 -4 -29 -6 -16 -6 -24 1 -24 6 0 6 -6 0 -18 -5 -10 -6 -24 -1
-31 4 -7 5 -25 1 -39 -4 -14 -4 -47 -1 -73 4 -27 2 -53 -3 -58 -5 -5 -4 -11 2
-15 7 -5 8 -13 2 -25 -5 -9 -6 -23 -1 -30 4 -8 5 -25 1 -40 -7 -28 -6 -90 2
-98 3 -2 2 -17 -3 -32 -4 -16 -4 -34 0 -41 5 -7 4 -24 -1 -37 -5 -15 -5 -23 2
-23 6 0 6 -6 0 -18 -5 -10 -6 -24 -1 -31 4 -8 5 -25 1 -40 -3 -14 -5 -39 -4
-56 6 -73 5 -143 -1 -153 -3 -6 -2 -13 4 -17 6 -4 7 -12 1 -24 -5 -9 -6 -23
-1 -30 4 -8 5 -25 1 -40 -7 -28 -6 -90 2 -98 3 -2 1 -17 -3 -33 -11 -38 2 -42
123 -39 24 0 124 0 142 -1 8 0 22 0 30 0 35 -2 133 -1 165 0 19 1 40 2 45 2 6
0 136 -1 290 -1 154 0 296 -1 315 -1 19 -1 42 -2 50 -2 26 1 361 2 368 1 4 -1
22 -1 41 0 25 1 32 5 27 16 -3 8 -2 15 3 15 5 0 6 15 4 32 -8 58 -9 83 -2 109
4 15 3 32 -1 40 -5 7 -4 21 1 31 6 12 6 18 0 18 -7 0 -7 8 -1 24 5 13 7 26 4
29 -8 7 -11 77 -4 77 4 0 4 18 0 39 -4 21 -3 46 2 55 6 10 5 16 -1 16 -7 0 -7
8 -1 24 5 13 6 26 4 29 -9 8 -10 70 -3 98 4 15 3 32 -1 40 -5 7 -4 21 1 31 6
12 6 18 0 18 -7 0 -7 8 -1 24 5 13 7 26 4 29 -8 8 -11 77 -3 77 4 0 4 12 0 28
-4 15 -5 38 -1 52 3 13 3 45 0 71 -3 25 -3 57 1 71 4 14 3 31 -1 38 -5 8 -5
23 0 35 5 12 5 28 0 35 -4 7 -4 25 0 41 5 15 6 30 3 33 -3 3 -5 38 -4 78 1 40
2 80 1 88 0 8 0 24 0 35 1 11 1 27 0 35 0 8 0 26 1 40 0 14 0 32 0 40 0 8 -1
47 0 85 0 39 0 77 -1 85 0 8 0 24 0 35 1 11 1 27 0 35 0 8 0 26 1 40 0 14 0
32 0 40 0 8 -1 47 0 85 0 39 0 77 -1 85 0 8 0 24 0 35 1 11 1 27 0 35 0 8 0
26 1 40 1 29 1 32 -3 83 -2 20 0 37 3 37 3 0 3 18 -1 39 -4 21 -3 46 2 55 6
10 5 16 -1 16 -7 0 -7 8 -1 24 5 13 6 26 4 29 -9 8 -10 70 -3 98 4 15 3 32 -1
40 -5 7 -4 21 1 31 6 12 6 18 0 18 -7 0 -7 8 -1 24 5 13 7 26 4 29 -8 7 -11
77 -4 77 4 0 4 18 0 39 -4 21 -3 46 2 55 6 10 5 16 -1 16 -7 0 -7 8 -1 24 5
13 6 26 4 29 -9 8 -10 70 -3 98 4 15 3 32 -1 40 -5 7 -4 21 1 31 6 12 6 18 0
18 -7 0 -7 8 -1 24 5 13 7 26 4 29 -8 7 -11 77 -4 77 4 0 4 18 0 39 -4 21 -3
46 2 55 6 10 5 16 -1 16 -7 0 -7 8 -1 24 5 13 6 26 4 29 -9 8 -10 70 -3 98 4
15 3 32 -1 40 -5 7 -4 21 1 31 6 12 6 18 0 18 -7 0 -7 8 -1 24 5 13 7 26 4 29
-8 7 -11 77 -4 77 4 0 4 18 0 39 -4 21 -3 46 2 55 6 10 5 16 -1 16 -7 0 -7 8
-1 24 5 13 6 26 4 29 -9 8 -10 70 -3 98 4 15 3 32 -1 40 -5 7 -4 21 1 31 6 12
6 18 0 18 -7 0 -7 8 -1 24 5 13 7 26 4 29 -8 7 -11 77 -4 77 4 0 4 18 0 39 -4
21 -3 46 2 55 6 10 5 16 -1 16 -7 0 -7 8 -1 24 5 13 6 26 4 29 -9 8 -10 70 -3
98 4 15 3 32 -1 40 -5 7 -4 21 1 31 6 12 6 18 0 18 -7 0 -7 8 -1 24 5 13 7 26
4 29 -8 8 -11 77 -3 77 4 0 4 12 0 28 -4 15 -5 38 -1 52 3 13 3 45 0 71 -3 25
-3 57 1 71 4 14 3 31 -1 38 -5 8 -5 23 0 35 5 12 5 28 0 35 -4 7 -4 25 0 41 5
15 6 30 3 33 -3 3 -5 38 -4 78 1 40 2 80 1 88 0 8 0 24 0 35 1 11 1 27 0 35 0
8 0 26 1 40 0 14 0 32 0 40 0 8 -1 47 0 85 0 39 0 77 -1 85 0 8 0 24 0 35 1
11 1 27 0 35 0 8 0 26 1 40 0 14 0 32 0 40 0 8 -1 47 0 85 0 39 0 77 -1 85 0
8 0 24 0 35 1 11 1 27 0 35 0 8 0 26 1 40 0 14 0 32 0 40 -1 8 -1 24 -1 35 1
11 1 27 1 35 -1 8 -1 29 0 45 0 17 0 36 0 43 -1 15 -1 35 -1 67 0 14 0 32 0
40 0 43 3 66 11 71 5 3 9 0 9 -6 0 -7 6 -8 18 -1 10 5 24 6 31 2 7 -5 27 -5
45 -1 17 4 40 5 51 3 44 -9 61 -9 77 -1 10 5 19 4 23 -2 5 -7 11 -8 19 -1 6 6
18 6 25 2 8 -5 26 -5 41 -1 15 4 33 4 40 0 7 -4 25 -4 40 0 15 4 33 4 40 0 7
-4 24 -5 38 -1 14 4 46 4 71 1 26 -3 58 -3 71 0 14 4 40 3 58 -1 17 -4 32 -4
32 0 0 5 20 5 45 1 24 -4 50 -3 57 1 7 4 18 3 24 -2 7 -6 15 -6 18 -1 3 5 23
6 46 2 22 -4 42 -4 45 0 2 4 25 4 49 0 25 -4 51 -3 58 1 7 4 18 3 24 -2 7 -6
15 -6 18 -1 3 5 26 6 51 2 25 -4 45 -4 45 0 0 8 49 5 57 -3 2 -3 17 -2 32 3
16 4 34 4 41 0 7 -4 25 -4 40 0 15 4 33 4 40 0 7 -4 24 -5 38 -1 14 4 46 4 71
1 26 -3 58 -3 71 0 14 4 40 3 58 -1 17 -4 32 -4 32 0 0 5 20 5 45 1 24 -4 50
-3 57 1 7 4 18 3 24 -2 7 -6 15 -6 18 -1 3 5 23 6 46 2 22 -4 42 -4 45 0 2 4
25 4 49 0 25 -4 51 -3 58 1 7 4 18 3 24 -2 7 -6 15 -6 18 -1 3 5 26 6 51 2 25
-4 45 -4 45 0 0 8 49 5 57 -3 2 -3 17 -2 32 3 16 4 34 4 41 0 7 -4 25 -4 40 0
15 4 33 4 40 0 7 -4 24 -5 38 -1 14 4 46 4 71 1 26 -3 58 -3 71 0 14 4 40 3
58 -1 17 -4 32 -4 32 0 0 5 20 5 45 1 24 -4 50 -3 57 1 7 4 18 3 24 -2 8 -7
14 -6 19 1 4 6 13 7 23 2 9 -5 31 -6 47 -2 17 3 49 3 72 -1 23 -3 48 -2 55 2
7 4 18 3 24 -2 7 -6 15 -6 18 -1 3 5 26 6 51 2 25 -4 45 -4 45 0 0 4 13 5 29
2 l30 -4 1 58 c1 33 0 75 0 94 -1 19 -2 41 -1 48 2 25 2 39 2 107 0 39 0 77 0
85 2 33 0 367 -2 400 0 19 -1 42 0 50 0 8 0 121 0 250 -1 129 -1 241 0 248 0
6 0 37 0 67 0 73 0 82 1 139 1 26 0 50 -2 52 -7 6 -138 7 -144 1 -3 -3 -17 -2
-30 3 -13 5 -26 6 -29 0 -3 -5 -18 -5 -33 -1 -15 5 -36 5 -47 1 -11 -4 -24 -5
-28 -3 -12 7 -147 6 -154 0 -3 -3 -16 -2 -29 3 -13 5 -26 6 -29 0 -3 -5 -18
-5 -33 -1 -15 5 -36 5 -47 1 -11 -4 -29 -4 -40 0 -20 6 -85 4 -92 -4 -3 -2
-18 0 -34 4 -18 5 -29 5 -29 -1 0 -6 -8 -5 -20 1 -11 6 -20 7 -20 2 0 -5 -21
-6 -48 -2 -26 3 -59 3 -72 0 -14 -4 -37 -3 -52 1 -17 5 -28 4 -28 -2 0 -6 -8
-5 -20 1 -11 6 -20 7 -20 2 0 -5 -22 -6 -48 -2 -27 3 -60 3 -74 -1 -14 -4 -31
-3 -38 1 -7 4 -25 4 -40 0 -15 -4 -33 -4 -40 0 -7 4 -24 5 -39 1 -14 -5 -38
-4 -53 0 -16 4 -28 3 -28 -2 0 -6 -8 -5 -20 1 -11 6 -20 7 -20 2 0 -5 -21 -6
-48 -2 -26 3 -59 3 -72 0 -14 -4 -37 -3 -52 1 -17 5 -28 4 -28 -2 0 -6 -8 -5
-20 1 -11 6 -20 7 -20 2 0 -5 -22 -6 -48 -2 -27 3 -60 3 -74 -1 -14 -4 -31 -3
-38 1 -7 4 -24 4 -39 0 -14 -4 -35 -6 -46 -4 -35 6 -126 7 -131 1 -3 -3 -19
-1 -35 3 -18 5 -29 5 -29 -1 0 -6 -8 -5 -20 1 -11 6 -20 7 -20 2 0 -5 -21 -6
-48 -2 -26 3 -59 3 -72 0 -14 -4 -37 -3 -52 1 -17 5 -28 4 -28 -2 0 -6 -8 -5
-20 1 -11 6 -20 7 -20 2 0 -5 -21 -6 -48 -2 -26 3 -59 3 -72 0 -14 -4 -37 -3
-52 1 -17 5 -28 4 -28 -2 0 -6 -8 -5 -20 1 -11 6 -20 7 -20 2 0 -5 -21 -6 -48
-2 -26 3 -59 3 -72 0 -14 -4 -37 -3 -52 1 -17 5 -28 4 -28 -2 0 -6 -8 -5 -20
1 -11 6 -20 7 -20 2 0 -5 -21 -6 -48 -2 -26 3 -59 3 -72 0 -14 -3 -42 -3 -62
1 -21 3 -38 3 -38 -2 0 -10 -38 -3 -55 11 -10 8 -11 19 -5 35 5 13 6 25 4 28
-9 8 -10 70 -3 98 4 15 3 32 -1 40 -5 7 -4 21 1 31 6 12 6 18 0 18 -7 0 -7 8
-1 24 5 13 7 26 4 29 -8 7 -11 77 -4 77 4 0 4 18 0 39 -4 21 -3 46 2 55 6 10
5 16 -1 16 -7 0 -7 8 -1 24 5 13 6 26 4 29 -9 8 -10 70 -3 98 4 15 3 32 -1 40
-5 7 -4 21 1 31 6 12 6 18 0 18 -7 0 -7 8 -1 24 5 13 7 26 4 29 -8 7 -11 77
-4 77 4 0 4 18 0 39 -4 21 -3 46 2 55 6 10 5 16 -1 16 -7 0 -7 8 -1 24 5 13 6
26 4 29 -9 8 -10 70 -3 98 4 15 3 32 -1 40 -5 7 -4 21 1 31 6 12 6 18 0 18 -7
0 -7 8 -1 24 5 13 7 26 4 29 -8 7 -11 77 -4 77 4 0 4 18 0 39 -4 21 -3 46 2
55 6 10 5 16 -1 16 -7 0 -7 8 -1 24 5 13 6 26 4 29 -9 8 -10 70 -3 98 4 15 3
32 -1 40 -5 7 -4 21 1 31 6 12 6 18 0 18 -7 0 -7 8 -1 24 5 13 7 26 4 29 -8 8
-11 77 -3 77 4 0 4 12 0 28 -4 15 -5 38 -1 52 3 13 3 45 0 71 -3 25 -3 57 1
71 4 14 3 31 -1 38 -5 8 -5 23 0 35 5 12 5 28 0 35 -4 7 -4 25 0 41 5 15 6 30
3 33 -3 3 -5 38 -4 78 1 40 2 80 1 88 0 8 0 24 0 35 1 11 1 27 0 35 0 8 0 26
1 40 0 14 0 32 0 40 0 8 -1 47 0 85 0 39 0 77 -1 85 0 8 0 24 0 35 1 11 1 27
0 35 0 8 0 26 1 40 0 14 0 32 0 40 -3 64 -2 151 3 158 2 4 1 14 -4 22 -4 7 -5
23 0 35 5 12 5 28 0 35 -4 7 -4 25 0 41 11 37 -4 42 -139 39 -58 -1 -113 -1
-121 -1 -8 0 -116 0 -240 0 -124 0 -232 0 -240 0 -8 0 -116 0 -240 0 -124 0
-234 0 -245 0 -81 4 -289 5 -328 3z"/>
</g>
</svg>
